<svg version="1.1" width="65" height="99" viewBox="1 4 75 99" xmlns="http://www.w3.org/2000/svg" xmlns:xlink="http://www.w3.org/1999/xlink">
<!-- This is the baseball shape -->
<path fill="none" stroke="black" stroke-width="5" d="M 246.375 144.250 C 255.859 144.250 264.453 147.808 270.675 153.555 C 276.898 159.303 280.750 167.240 280.750 176 C 280.750 184.760 276.898 192.697 270.675 198.445 C 264.453 204.192 255.859 207.750 246.375 207.750 C 236.891 207.750 228.297 204.192 222.075 198.445 C 215.852 192.697 212 184.760 212 176 C 212 167.240 215.852 159.303 222.075 153.555 C 228.297 147.808 236.891 144.250 246.375 144.250 Z " transform="matrix(0.8248, 0, 0, 0.8248, -168.25, -89.3)"/>

<!-- This is the left stitch -->
<path fill="none" stroke="blue" stroke-width="5" stroke-linecap="round" d="M 222.250 161.500 C 222.250 161.500 225.465 163.421 226.750 164.750 C 227.922 165.962 229.102 167.362 229.500 169 C 229.895 170.626 229.376 172.370 229 174 C 228.621 175.643 227.064 177.075 227.250 178.750 C 227.436 180.425 228.745 181.875 230 183 C 231.247 184.118 234.375 183.933 234.500 185.250 C 234.625 186.558 231.832 187.251 230.500 188.250 C 229.168 189.249 225.937 189.683 226.500 191.250 C 227.635 194.412 232.280 195.113 234 198 C 234.856 199.438 234.387 201.581 233.500 203 C 232.900 203.960 230.250 204 230.250 204 " transform="matrix(1, 0, 0, 1, -206, -124)"/>

<!-- This is right stitch -->
<path fill="none" stroke="blue" stroke-width="5" stroke-linecap="round" d="M 263.500 195.750 C 263.500 195.750 259.009 195.636 258 194 C 256.225 191.123 257.961 186.915 256.250 184 C 255.370 182.501 252.567 183.635 251.250 182.500 C 249.924 181.357 248.851 179.494 249 177.750 C 249.142 176.091 252.228 175.399 252 173.750 C 251.765 172.050 249.388 171.509 248 170.500 C 246.637 169.509 244.523 169.248 243.750 167.750 C 242.985 166.269 244.295 164.391 244 162.750 C 243.697 161.061 243.192 159.235 242 158 C 240.707 156.661 237 155.500 237 155.500 " transform="matrix(1, 0, 0, 1, -206, -124)"/>

<!-- This is the first line of text -->
<text fill="red" x="0" y="25" text-anchor="start" font-family="Arial" font-size="22" transform="matrix(1, 0, 0, 1, 15.25, 0.9)">GO</text>
<!-- This is the second line of text -->
<text fill="red" x="5" y="18" text-anchor="start" font-family="Arial" font-size="14" transform="matrix(1, 0, 0, 1, 0.75, 80.9)">TEAM</text>
</svg>