<svg version="1.1" width="152" height="89" viewBox="-1 -1 152 89" xmlns="http://www.w3.org/2000/svg" xmlns:xlink="http://www.w3.org/1999/xlink">

<!-- This is the flag shape -->
<path fill="none" stroke="black" stroke-width="5" d="M 246.375 154 C 258.388 153.632 269.306 161.990 281.250 163.500 C 288.494 164.294 297.384 156.162 303 160.800 C 309.979 166.564 309.871 177.955 310.250 187 C 310.719 198.181 316.276 217.196 305.500 220.750 C 285.739 226.949 264.745 212.405 244.500 208 C 229.359 204.706 213.482 203.370 199.250 197.150 C 195.692 195.595 211.773 194.803 209 192.950 C 200.096 187.012 183.225 186.348 175.500 181.700 C 172.764 180.054 189.320 182.126 187.750 180 C 184.838 176.054 162.721 173.036 166.500 169.800 C 209.537 160.466 225.150 154.792 246.375 154 Z " transform="matrix(1, 0, 0, 1.1971, -163.75, -180.75)"/>
<!-- This is the small corner section -->
<path fill="blue" stroke="#000000" stroke-width="5" stroke-linecap="round" d="M 227.500 141.500 C 234.916 144.081 237.513 154.636 239 162.500 C 239.471 165.552 233.889 166.547 232.500 169.375 C 228.061 178.410 230.236 192.714 221.500 198 C 213.614 202.769 200.917 196.483 194 192.250 C 191.542 190.733 203.352 189.008 202.750 186.500 C 202.033 183.544 195.561 182.973 191.750 181.500 C 184.114 178.549 172.205 176.385 168.500 173.500 C 166.614 172.034 181.427 174.968 180 172.750 C 177.004 168.105 156.061 163.840 159.750 159.500 C 166.098 152.033 186.876 152.596 200.500 149 C 209.438 146.601 218.687 138.434 227.500 141.500 Z " transform="matrix(1, 0, 0, 1, -157, -137)"/>

<!-- This is the first line of text -->
<text fill="red" x="2" y="18" text-anchor="start" font-family="Arial" font-size="22" transform="matrix(1, 0, 0, 1, 35, 14.9)">GO</text>
<!-- This is the second line of text -->
<text fill="red" x="2" y="20" text-anchor="start" font-family="Arial" font-size="14" transform="matrix(0.9748, 0.2226, -0.2226, 0.9748, 77.9, 31.05)">TEAM</text>


</svg>