<svg version="1.1" width="150" height="79" viewBox="2 5 150 79" xmlns="http://www.w3.org/2000/svg" xmlns:xlink="http://www.w3.org/1999/xlink">

<!-- This is the football shape -->
<path fill="none" stroke="black" stroke-width="5" d="M 246.375 144.250 C 255.859 144.250 264.453 147.808 270.675 153.555 C 276.898 159.303 280.750 167.240 280.750 176 C 280.750 184.760 276.898 192.697 270.675 198.445 C 264.453 204.192 255.859 207.750 246.375 207.750 C 236.891 207.750 228.297 204.192 222.075 198.445 C 215.852 192.697 212 184.760 212 176 C 212 167.240 215.852 159.303 222.075 153.555 C 228.297 147.808 236.891 144.250 246.375 144.250 Z " transform="matrix(-1.2831, 0.6027, 0.3506, 0.7465, 318.1, -231.85)"/>
<!-- This is the first line of text -->
<text fill="red" x="15" y="25" text-anchor="start" font-family="Arial" font-size="22" transform="matrix(1, 0, 0, 1, 0.75, 0.9)">GO</text>

<!-- This is the second line of text -->
<text fill="red" x="0" y="15" text-anchor="start" font-family="Arial" font-size="12" transform="matrix(0.9999, -0.0019, 0.0019, 0.9999, 87.3, 60.9)">TEAM</text>
<!-- This is the right stitch -->
<path fill="none" stroke="blue" stroke-width="5" stroke-linecap="round" d="M 235.500 154.750 C 235.500 154.750 239.412 156.667 240.250 158.500 C 240.950 160.031 240.340 162.041 239.500 163.500 C 238.644 164.987 235.610 165.037 235.500 166.750 C 235.378 168.644 237.487 170.104 239 171.250 C 240.344 172.268 242.269 172.196 243.750 173 C 245.213 173.794 246.573 174.823 247.750 176 C 248.927 177.177 249.764 178.659 250.750 180 C 251.845 181.489 252.628 183.261 254 184.500 C 255.272 185.649 257.381 185.702 258.500 187 C 259.601 188.277 259.392 190.299 260.250 191.750 C 260.534 192.231 261.750 192.500 261.750 192.500 " transform="matrix(1, 0, 0, 1, -165, -136)"/>
<!-- This is the left stitch -->
<path fill="none" stroke="blue" stroke-width="5" stroke-linecap="round" d="M 200 171.250 C 200 171.250 202.687 174.250 204.250 175.500 C 205.621 176.597 207.618 176.908 208.750 178.250 C 209.977 179.704 210.203 181.773 211 183.500 C 211.702 185.021 212.348 186.588 213.250 188 C 214.272 189.600 215.452 191.115 216.750 192.500 C 217.961 193.791 219.376 194.884 220.750 196 C 222.042 197.050 223.458 197.950 224.750 199 C 226.124 200.116 228.152 200.834 228.750 202.500 C 229.455 204.465 228.250 208.750 228.250 208.750 " transform="matrix(1, 0, 0, 1, -165, -136)"/>
</svg>