<svg version="1.1" width="105" height="105" viewBox="-1 -1 105 105" xmlns="http://www.w3.org/2000/svg" xmlns:xlink="http://www.w3.org/1999/xlink">
<!-- This is the helmet shape -->


<path fill="none" stroke="black" stroke-width="5" stroke-linecap="round" d="M 248.500 145.500 C 258.984 145.500 267.444 150.490 275.363 155.904 C 279.997 159.075 288.720 166.487 284.400 169.650 C 274.289 177.385 255.139 168.118 246.500 177.700 C 237.384 187.813 248.855 209.301 240.900 218.500 C 236.424 223.499 226.364 211.921 221.637 206.096 C 215.876 198.996 210.500 190.794 210.500 181 C 210.500 171.206 214.758 162.331 221.637 155.904 C 228.516 149.478 238.016 145.500 248.500 145.500 Z " transform="matrix(1.2993, 0, 0, 1.2993, -270.25, -185.4)"/>
<!-- This is the main strap -->
<path fill="none" stroke="blue" stroke-width="5" stroke-linecap="round" d="M 284 165.250 C 284 165.250 284.111 170.422 284.250 173 C 284.444 176.583 284.675 180.176 285 183.750 C 285.175 185.673 285.721 187.569 285.750 189.500 C 285.804 193.083 285.138 196.668 285.250 200.250 C 285.306 202.029 286.208 203.721 286.250 205.500 C 286.292 207.265 286.111 209.093 285.500 210.750 C 284.917 212.332 283.748 213.642 282.750 215 C 280.748 217.724 278.890 220.610 276.500 223 C 275.258 224.242 273.675 225.221 272 225.750 C 270.410 226.252 268.667 225.961 267 226 C 265.086 226.045 263.164 225.957 261.250 226 C 259.417 226.041 257.569 226.023 255.750 226.250 C 252.233 226.690 248.730 227.326 245.250 228 C 243.565 228.326 241.931 228.906 240.250 229.250 C 238.266 229.656 234.250 230.250 234.250 230.250 " transform="matrix(1, 0, 0, 1, -187, -130)"/>

<!-- This is the side strap -->
<path fill="none" stroke="blue" stroke-width="5" stroke-linecap="round" d="M 258 225 L 285 182 " transform="matrix(1, 0, 0, 1, -189, -129)"/>

<!-- This is the first line of text -->
<text fill="red" x="-20" y="50" text-anchor="start" font-family="Arial" font-size="22" transform="matrix(1, 0, 0, 1, 27.5, 4.65)">GO</text>

<!-- This is the second line of text -->
<text fill="red" x="55" y="5" text-anchor="start" font-family="Arial" font-size="16" transform="matrix(0.7206, 0, 0, 0.7206, 5.15, 27.55)">TEAM</text>
</svg>